<svg width="188" height="141" viewBox="0 0 188 141" fill="none" xmlns="http://www.w3.org/2000/svg">
<path d="M155.862 20.7569C153.251 21.8596 152.472 19.6218 149.651 19.6218C147.251 19.6218 146.456 20.8218 146.456 21.7137C146.456 21.8921 146.489 22.0867 146.537 22.2488H124.451C119.943 22.2488 116.91 19.638 116.91 15.7624C116.91 12.9894 119.164 10.7515 121.921 10.7515C124.045 10.7515 125.764 12.4705 125.764 14.5948C125.764 16.2002 124.467 17.4975 122.862 17.4975C121.678 17.4975 120.721 16.5407 120.721 15.3569C120.721 14.8867 120.332 14.4975 119.862 14.4975C119.391 14.4975 119.002 14.8867 119.002 15.3569C119.002 17.4975 120.737 19.2326 122.878 19.2326C125.424 19.2326 127.499 17.1569 127.499 14.611C127.499 11.5461 125.002 9.04882 121.937 9.04882C118.224 9.04882 115.191 12.065 115.191 15.7948C115.191 18.5515 116.424 20.8218 118.499 22.2813H107.829C100.029 22.2813 94.5804 17.5623 94.5804 10.8002C94.5804 5.838 98.6183 1.78396 103.597 1.78396C107.472 1.78396 110.635 4.94612 110.635 8.8218C110.635 11.838 108.186 14.2867 105.17 14.2867C102.851 14.2867 100.97 12.4056 100.97 10.0867C100.97 9.1137 101.424 8.23801 102.121 7.65423C102.299 8.65963 103.207 9.24342 104.343 9.24342C105.98 9.24342 107.197 8.36774 107.634 7.49207C107.716 7.34612 107.553 7.18395 107.391 7.2326C105.964 7.73531 106.094 5.88666 104.716 5.40017C104.57 5.25423 104.359 5.15693 104.132 5.15693C101.424 5.15693 99.2183 7.36233 99.2183 10.0704C99.2183 13.3299 101.878 15.9894 105.137 15.9894C109.094 15.9894 112.321 12.7623 112.321 8.80558C112.321 3.97314 108.397 0.0488281 103.564 0.0488281C97.6453 0.0488281 92.8291 4.86504 92.8291 10.784C92.8291 18.438 99.1372 24.0002 107.813 24.0002H149.91C152.797 24.0002 155.926 22.0218 156.364 21.0164C156.445 20.8218 156.105 20.6921 155.845 20.7894L155.862 20.7569Z" fill="url(#paint0_linear_4218_4718)"/>
<path d="M83.8284 0.0162197C78.996 0.0162197 75.0717 3.94055 75.0717 8.77298C75.0717 12.7297 78.2987 15.9568 82.2555 15.9568C85.5149 15.9568 88.1744 13.2973 88.1744 10.0379C88.1744 7.32975 85.969 5.12433 83.2609 5.12433C83.0338 5.12433 82.823 5.22163 82.6771 5.36758C81.2987 5.85406 81.4446 7.68649 80.0014 7.20001C79.8392 7.15136 79.6933 7.29731 79.7581 7.45947C80.196 8.35136 81.4122 9.21081 83.05 9.21081C84.1852 9.21081 85.0933 8.62704 85.2717 7.62163C85.969 8.20542 86.423 9.06488 86.423 10.0541C86.423 12.373 84.5419 14.2541 82.223 14.2541C79.2068 14.2541 76.7582 11.8054 76.7582 8.7892C76.7582 4.91352 79.9203 1.75135 83.796 1.75135C88.7582 1.75135 92.8122 5.7892 92.8122 10.7676C92.8122 17.5297 87.3636 22.2487 79.5636 22.2487H68.8933C70.969 20.7892 72.2014 18.5189 72.2014 15.7622C72.2014 12.0487 69.1852 9.01623 65.4554 9.01623C62.3906 9.01623 59.8933 11.5135 59.8933 14.5784C59.8933 17.1243 61.969 19.2 64.5149 19.2C66.6554 19.2 68.3906 17.4649 68.3906 15.3243C68.3906 14.8541 68.0014 14.4649 67.5311 14.4649C67.0609 14.4649 66.6717 14.8541 66.6717 15.3243C66.6717 16.5081 65.7149 17.4649 64.5311 17.4649C62.9257 17.4649 61.6284 16.1676 61.6284 14.5622C61.6284 12.4378 63.3473 10.7189 65.4717 10.7189C68.2446 10.7189 70.4825 12.973 70.4825 15.7297C70.4825 19.6054 67.45 22.2162 62.9419 22.2162H40.8554C40.9041 22.0379 40.9365 21.8595 40.9365 21.6811C40.9365 20.7892 40.1581 19.5892 37.7419 19.5892C34.9203 19.5892 34.1419 21.827 31.5311 20.7243C31.2717 20.6108 30.9311 20.7568 31.0122 20.9514C31.45 21.9568 34.5798 23.9351 37.4662 23.9351H79.5636C88.2392 23.9351 94.5474 18.3892 94.5474 10.7351C94.5474 4.81622 89.7311 0 83.8122 0L83.8284 0.0162197Z" fill="url(#paint1_linear_4218_4718)"/>
<path d="M155.862 120.243C153.251 119.14 152.472 121.378 149.651 121.378C147.251 121.378 146.456 120.178 146.456 119.286C146.456 119.108 146.489 118.913 146.537 118.751H124.451C119.943 118.751 116.91 121.362 116.91 125.238C116.91 128.011 119.164 130.248 121.921 130.248C124.045 130.248 125.764 128.53 125.764 126.405C125.764 124.8 124.467 123.503 122.862 123.503C121.678 123.503 120.721 124.459 120.721 125.643C120.721 126.113 120.332 126.503 119.862 126.503C119.391 126.503 119.002 126.113 119.002 125.643C119.002 123.503 120.737 121.767 122.878 121.767C125.424 121.767 127.499 123.843 127.499 126.389C127.499 129.454 125.002 131.951 121.937 131.951C118.224 131.951 115.191 128.935 115.191 125.205C115.191 122.448 116.424 120.178 118.499 118.719H107.829C100.029 118.719 94.5804 123.438 94.5804 130.2C94.5804 135.162 98.6183 139.216 103.597 139.216C107.472 139.216 110.635 136.054 110.635 132.178C110.635 129.162 108.186 126.713 105.17 126.713C102.851 126.713 100.97 128.594 100.97 130.913C100.97 131.886 101.424 132.762 102.121 133.346C102.299 132.34 103.207 131.757 104.343 131.757C105.98 131.757 107.197 132.632 107.634 133.508C107.716 133.654 107.553 133.816 107.391 133.767C105.964 133.265 106.094 135.113 104.716 135.6C104.57 135.746 104.359 135.843 104.132 135.843C101.424 135.843 99.2183 133.638 99.2183 130.93C99.2183 127.67 101.878 125.011 105.137 125.011C109.094 125.011 112.321 128.238 112.321 132.194C112.321 137.027 108.397 140.951 103.564 140.951C97.6453 140.951 92.8291 136.135 92.8291 130.216C92.8291 122.562 99.1372 117 107.813 117H149.91C152.797 117 155.926 118.978 156.364 119.984C156.445 120.178 156.105 120.308 155.845 120.211L155.862 120.243Z" fill="url(#paint2_linear_4218_4718)"/>
<path d="M83.8284 140.984C78.996 140.984 75.0717 137.059 75.0717 132.227C75.0717 128.27 78.2987 125.043 82.2555 125.043C85.5149 125.043 88.1744 127.703 88.1744 130.962C88.1744 133.67 85.969 135.876 83.2609 135.876C83.0338 135.876 82.823 135.778 82.6771 135.632C81.2987 135.146 81.4446 133.314 80.0014 133.8C79.8392 133.849 79.6933 133.703 79.7581 133.541C80.196 132.649 81.4122 131.789 83.05 131.789C84.1852 131.789 85.0933 132.373 85.2717 133.378C85.969 132.795 86.423 131.935 86.423 130.946C86.423 128.627 84.5419 126.746 82.223 126.746C79.2068 126.746 76.7582 129.195 76.7582 132.211C76.7582 136.086 79.9203 139.249 83.796 139.249C88.7582 139.249 92.8122 135.211 92.8122 130.232C92.8122 123.47 87.3636 118.751 79.5636 118.751H68.8933C70.969 120.211 72.2014 122.481 72.2014 125.238C72.2014 128.951 69.1852 131.984 65.4554 131.984C62.3906 131.984 59.8933 129.486 59.8933 126.422C59.8933 123.876 61.969 121.8 64.5149 121.8C66.6554 121.8 68.3906 123.535 68.3906 125.676C68.3906 126.146 68.0014 126.535 67.5311 126.535C67.0609 126.535 66.6717 126.146 66.6717 125.676C66.6717 124.492 65.7149 123.535 64.5311 123.535C62.9257 123.535 61.6284 124.832 61.6284 126.438C61.6284 128.562 63.3473 130.281 65.4717 130.281C68.2446 130.281 70.4825 128.027 70.4825 125.27C70.4825 121.395 67.45 118.784 62.9419 118.784H40.8554C40.9041 118.962 40.9365 119.141 40.9365 119.319C40.9365 120.211 40.1581 121.411 37.7419 121.411C34.9203 121.411 34.1419 119.173 31.5311 120.276C31.2717 120.389 30.9311 120.243 31.0122 120.049C31.45 119.043 34.5798 117.065 37.4662 117.065H79.5636C88.2392 117.065 94.5474 122.611 94.5474 130.265C94.5474 136.184 89.7311 141 83.8122 141L83.8284 140.984Z" fill="url(#paint3_linear_4218_4718)"/>
<rect x="2.5" y="26.5" width="183" height="88" rx="44" fill="url(#paint4_linear_4218_4718)" stroke="url(#paint5_linear_4218_4718)" stroke-width="5"/>
<path opacity="0.22" d="M89.2361 79.3688V78.6351C89.2504 76.1175 89.4729 74.1107 89.9035 72.6145C90.3484 71.1184 90.9943 69.91 91.8411 68.9893C92.6879 68.0686 93.707 67.2342 94.8983 66.4861C95.7882 65.9107 96.5848 65.3137 97.288 64.6951C97.9913 64.0765 98.5511 63.3931 98.9673 62.6451C99.3836 61.8826 99.5917 61.0338 99.5917 60.0987C99.5917 59.1061 99.3549 58.2358 98.8812 57.4877C98.4076 56.7396 97.7689 56.1642 96.9651 55.7614C96.1757 55.3586 95.3002 55.1572 94.3385 55.1572C93.4056 55.1572 92.5229 55.3658 91.6904 55.7829C90.858 56.1858 90.1762 56.79 89.6451 57.5956C89.1141 58.3868 88.827 59.3722 88.784 60.5519H80C80.0718 57.6747 80.7607 55.301 82.0668 53.4308C83.3729 51.5463 85.1024 50.1436 87.2554 49.2229C89.4083 48.2879 91.7837 47.8203 94.3816 47.8203C97.2378 47.8203 99.7639 48.295 101.96 49.2445C104.156 50.1796 105.878 51.5391 107.127 53.3229C108.376 55.1068 109 57.2575 109 59.7751C109 61.4582 108.72 62.9544 108.16 64.2635C107.615 65.5582 106.847 66.7091 105.857 67.7161C104.866 68.7087 103.697 69.6079 102.347 70.4135C101.214 71.0896 100.281 71.7945 99.5486 72.5282C98.831 73.2619 98.2927 74.1107 97.9339 75.0745C97.5895 76.0384 97.41 77.2252 97.3957 78.6351V79.3688H89.2361ZM93.4989 93.1793C92.0636 93.1793 90.8364 92.6758 89.8174 91.6688C88.8127 90.6474 88.3175 89.4245 88.3318 88.0003C88.3175 86.5905 88.8127 85.3821 89.8174 84.3751C90.8364 83.3681 92.0636 82.8645 93.4989 82.8645C94.8624 82.8645 96.0609 83.3681 97.0943 84.3751C98.1277 85.3821 98.6516 86.5905 98.6659 88.0003C98.6516 88.9498 98.4004 89.8202 97.9124 90.6114C97.4388 91.3882 96.8144 92.014 96.0393 92.4888C95.2643 92.9491 94.4175 93.1793 93.4989 93.1793Z" fill="url(#paint6_linear_4218_4718)"/>
<defs>
<linearGradient id="paint0_linear_4218_4718" x1="104.264" y1="5.33284" x2="111.506" y2="28.1561" gradientUnits="userSpaceOnUse">
<stop stop-color="#DFB778"/>
<stop offset="0.485" stop-color="#E5C593"/>
<stop offset="0.555" stop-color="white"/>
<stop offset="0.81" stop-color="white"/>
<stop offset="1" stop-color="#856B42"/>
</linearGradient>
<linearGradient id="paint1_linear_4218_4718" x1="42.4344" y1="5.28044" x2="49.6677" y2="28.0911" gradientUnits="userSpaceOnUse">
<stop stop-color="#DFB778"/>
<stop offset="0.485" stop-color="#E5C593"/>
<stop offset="0.555" stop-color="white"/>
<stop offset="0.81" stop-color="white"/>
<stop offset="1" stop-color="#856B42"/>
</linearGradient>
<linearGradient id="paint2_linear_4218_4718" x1="104.264" y1="135.667" x2="111.506" y2="112.844" gradientUnits="userSpaceOnUse">
<stop stop-color="#DFB778"/>
<stop offset="0.485" stop-color="#E5C593"/>
<stop offset="0.555" stop-color="white"/>
<stop offset="0.81" stop-color="white"/>
<stop offset="1" stop-color="#856B42"/>
</linearGradient>
<linearGradient id="paint3_linear_4218_4718" x1="42.4344" y1="135.72" x2="49.6677" y2="112.909" gradientUnits="userSpaceOnUse">
<stop stop-color="#DFB778"/>
<stop offset="0.485" stop-color="#E5C593"/>
<stop offset="0.555" stop-color="white"/>
<stop offset="0.81" stop-color="white"/>
<stop offset="1" stop-color="#856B42"/>
</linearGradient>
<linearGradient id="paint4_linear_4218_4718" x1="94" y1="34.3029" x2="94" y2="65.2722" gradientUnits="userSpaceOnUse">
<stop stop-color="#1A212B"/>
<stop offset="1" stop-color="#222A36"/>
</linearGradient>
<linearGradient id="paint5_linear_4218_4718" x1="33.8279" y1="44.5171" x2="68.4471" y2="127.642" gradientUnits="userSpaceOnUse">
<stop stop-color="#DFB778"/>
<stop offset="0.485" stop-color="#E5C593"/>
<stop offset="0.555" stop-color="white"/>
<stop offset="0.81" stop-color="white"/>
<stop offset="1" stop-color="#856B42"/>
</linearGradient>
<linearGradient id="paint6_linear_4218_4718" x1="94.5" y1="47.8203" x2="83.7179" y2="102.102" gradientUnits="userSpaceOnUse">
<stop stop-color="white"/>
<stop offset="1" stop-color="white" stop-opacity="0"/>
</linearGradient>
</defs>
</svg>
