<svg width="327" height="326" viewBox="0 0 327 326" fill="none" xmlns="http://www.w3.org/2000/svg">
<g clip-path="url(#clip0_4535_6814)">
<path d="M200.927 303.346C199.95 303.608 199.37 304.612 199.632 305.589C199.894 306.566 200.898 307.146 201.875 306.884C202.852 306.622 203.432 305.618 203.17 304.641C202.908 303.664 201.904 303.084 200.927 303.346Z" fill="#3C4452"/>
<path d="M124.768 19.1175C123.791 19.3793 123.212 20.3836 123.473 21.3606C123.735 22.3376 124.739 22.9174 125.716 22.6557C126.693 22.3939 127.273 21.3896 127.011 20.4126C126.75 19.4356 125.745 18.8558 124.768 19.1175Z" fill="#3C4452"/>
<path d="M235.97 288.829C235.094 289.335 234.794 290.455 235.3 291.331C235.805 292.207 236.926 292.507 237.802 292.002C238.677 291.496 238.978 290.376 238.472 289.5C237.966 288.624 236.846 288.324 235.97 288.829Z" fill="#3C4452"/>
<path d="M88.8427 33.9975C87.9667 34.5032 87.6666 35.6233 88.1723 36.4993C88.6781 37.3752 89.7982 37.6754 90.6742 37.1696C91.5501 36.6639 91.8503 35.5438 91.3445 34.6678C90.8388 33.7918 89.7187 33.4917 88.8427 33.9975Z" fill="#3C4452"/>
<path d="M266.062 265.74C265.347 266.455 265.347 267.615 266.062 268.33C266.777 269.045 267.937 269.045 268.652 268.33C269.367 267.615 269.367 266.455 268.652 265.74C267.937 265.025 266.777 265.025 266.062 265.74Z" fill="white"/>
<g filter="url(#filter0_f_4535_6814)">
<path d="M264.767 264.445C263.336 265.876 263.336 268.195 264.767 269.625C266.197 271.056 268.517 271.056 269.947 269.625C271.378 268.195 271.378 265.876 269.947 264.445C268.517 263.015 266.197 263.015 264.767 264.445Z" fill="white"/>
</g>
<g filter="url(#filter1_f_4535_6814)">
<path d="M264.767 264.445C263.336 265.876 263.336 268.195 264.767 269.625C266.197 271.056 268.517 271.056 269.947 269.625C271.378 268.195 271.378 265.876 269.947 264.445C268.517 263.015 266.197 263.015 264.767 264.445Z" fill="white"/>
</g>
<path d="M57.9927 57.6698C57.2775 58.385 57.2775 59.5447 57.9927 60.2599C58.7079 60.9751 59.8676 60.9751 60.5828 60.2599C61.298 59.5447 61.298 58.385 60.5828 57.6698C59.8676 56.9546 58.7079 56.9546 57.9927 57.6698Z" fill="white"/>
<g filter="url(#filter2_f_4535_6814)">
<path d="M56.6977 56.3748C55.2673 57.8052 55.2673 60.1245 56.6977 61.5549C58.1282 62.9854 60.4474 62.9854 61.8779 61.5549C63.3084 60.1245 63.3084 57.8052 61.8779 56.3748C60.4474 54.9443 58.1282 54.9443 56.6977 56.3748Z" fill="white"/>
</g>
<g filter="url(#filter3_f_4535_6814)">
<path d="M56.6977 56.3748C55.2673 57.8052 55.2673 60.1245 56.6977 61.5549C58.1282 62.9854 60.4474 62.9854 61.8779 61.5549C63.3084 60.1245 63.3084 57.8052 61.8779 56.3748C60.4474 54.9443 58.1282 54.9443 56.6977 56.3748Z" fill="white"/>
</g>
<path d="M289.152 235.649C288.646 236.525 288.946 237.645 289.822 238.151C290.698 238.657 291.818 238.357 292.324 237.481C292.83 236.605 292.53 235.485 291.654 234.979C290.778 234.473 289.658 234.773 289.152 235.649Z" fill="#3C4452"/>
<path d="M34.3202 88.5203C33.8145 89.3962 34.1146 90.5163 34.9906 91.0221C35.8665 91.5278 36.9866 91.2277 37.4924 90.3517C37.9981 89.4757 37.698 88.3556 36.822 87.8499C35.946 87.3442 34.8259 87.6443 34.3202 88.5203Z" fill="#3C4452"/>
<path d="M303.667 200.606C303.405 201.583 303.985 202.587 304.962 202.849C305.939 203.111 306.943 202.531 307.205 201.554C307.467 200.577 306.887 199.573 305.91 199.311C304.933 199.049 303.929 199.629 303.667 200.606Z" fill="#3C4452"/>
<path d="M19.439 124.446C19.1772 125.423 19.757 126.427 20.7341 126.689C21.7111 126.951 22.7153 126.371 22.9771 125.394C23.2389 124.417 22.6591 123.413 21.6821 123.151C20.7051 122.889 19.7008 123.469 19.439 124.446Z" fill="#3C4452"/>
<path d="M308.618 162.999C308.618 164.011 309.438 164.831 310.449 164.831C311.461 164.831 312.281 164.011 312.281 162.999C312.281 161.988 311.461 161.168 310.449 161.168C309.438 161.168 308.618 161.988 308.618 162.999Z" fill="white"/>
<g filter="url(#filter4_f_4535_6814)">
<path d="M306.787 162.999C306.787 165.022 308.426 166.662 310.449 166.662C312.472 166.662 314.112 165.022 314.112 162.999C314.112 160.976 312.472 159.336 310.449 159.336C308.426 159.336 306.787 160.976 306.787 162.999Z" fill="white"/>
</g>
<g filter="url(#filter5_f_4535_6814)">
<path d="M306.787 162.999C306.787 165.022 308.426 166.662 310.449 166.662C312.472 166.662 314.112 165.022 314.112 162.999C314.112 160.976 312.472 159.336 310.449 159.336C308.426 159.336 306.787 160.976 306.787 162.999Z" fill="white"/>
</g>
<path d="M14.3633 162.999C14.3633 164.011 15.1833 164.831 16.1948 164.831C17.2062 164.831 18.0262 164.011 18.0262 162.999C18.0262 161.988 17.2062 161.168 16.1948 161.168C15.1833 161.168 14.3633 161.988 14.3633 162.999Z" fill="white"/>
<g filter="url(#filter6_f_4535_6814)">
<path d="M12.5318 162.999C12.5318 165.022 14.1718 166.662 16.1948 166.662C18.2177 166.662 19.8577 165.022 19.8577 162.999C19.8577 160.976 18.2177 159.336 16.1948 159.336C14.1718 159.336 12.5318 160.976 12.5318 162.999Z" fill="white"/>
</g>
<g filter="url(#filter7_f_4535_6814)">
<path d="M12.5318 162.999C12.5318 165.022 14.1718 166.662 16.1948 166.662C18.2177 166.662 19.8577 165.022 19.8577 162.999C19.8577 160.976 18.2177 159.336 16.1948 159.336C14.1718 159.336 12.5318 160.976 12.5318 162.999Z" fill="white"/>
</g>
<path d="M303.668 125.395C303.929 126.372 304.934 126.952 305.911 126.69C306.888 126.428 307.468 125.424 307.206 124.447C306.944 123.47 305.94 122.89 304.963 123.152C303.986 123.414 303.406 124.418 303.668 125.395Z" fill="#3C4452"/>
<path d="M19.4395 201.553C19.7013 202.53 20.7055 203.11 21.6825 202.848C22.6596 202.586 23.2394 201.582 22.9776 200.605C22.7158 199.628 21.7115 199.048 20.7345 199.31C19.7575 199.572 19.1777 200.576 19.4395 201.553Z" fill="#3C4452"/>
<path d="M289.152 90.3531C289.658 91.2291 290.778 91.5292 291.654 91.0235C292.53 90.5177 292.83 89.3976 292.324 88.5216C291.818 87.6457 290.698 87.3455 289.822 87.8513C288.946 88.357 288.646 89.4771 289.152 90.3531Z" fill="#3C4452"/>
<path d="M34.3202 237.48C34.8259 238.356 35.946 238.656 36.822 238.15C37.698 237.645 37.9981 236.525 37.4924 235.649C36.9866 234.773 35.8665 234.472 34.9906 234.978C34.1146 235.484 33.8144 236.604 34.3202 237.48Z" fill="#3C4452"/>
<path d="M266.062 60.2601C266.777 60.9753 267.937 60.9753 268.652 60.2601C269.367 59.5449 269.367 58.3853 268.652 57.67C267.937 56.9548 266.777 56.9548 266.062 57.67C265.347 58.3853 265.347 59.5449 266.062 60.2601Z" fill="white"/>
<g filter="url(#filter8_f_4535_6814)">
<path d="M264.767 61.5554C266.197 62.9858 268.517 62.9858 269.947 61.5554C271.378 60.1249 271.378 57.8057 269.947 56.3752C268.517 54.9448 266.197 54.9448 264.767 56.3752C263.336 57.8057 263.336 60.1249 264.767 61.5554Z" fill="white"/>
</g>
<g filter="url(#filter9_f_4535_6814)">
<path d="M264.767 61.5554C266.197 62.9858 268.517 62.9858 269.947 61.5554C271.378 60.1249 271.378 57.8057 269.947 56.3752C268.517 54.9448 266.197 54.9448 264.767 56.3752C263.336 57.8057 263.336 60.1249 264.767 61.5554Z" fill="white"/>
</g>
<path d="M57.9924 268.33C58.7076 269.046 59.8673 269.046 60.5825 268.33C61.2977 267.615 61.2977 266.456 60.5825 265.74C59.8673 265.025 58.7076 265.025 57.9924 265.74C57.2772 266.456 57.2772 267.615 57.9924 268.33Z" fill="white"/>
<g filter="url(#filter10_f_4535_6814)">
<path d="M56.6974 269.624C58.1278 271.054 60.4471 271.054 61.8775 269.624C63.308 268.193 63.308 265.874 61.8775 264.444C60.4471 263.013 58.1278 263.013 56.6974 264.444C55.2669 265.874 55.2669 268.193 56.6974 269.624Z" fill="white"/>
</g>
<g filter="url(#filter11_f_4535_6814)">
<path d="M56.6974 269.624C58.1278 271.054 60.4471 271.054 61.8775 269.624C63.308 268.193 63.308 265.874 61.8775 264.444C60.4471 263.013 58.1278 263.013 56.6974 264.444C55.2669 265.874 55.2669 268.193 56.6974 269.624Z" fill="white"/>
</g>
<path d="M235.97 37.1699C236.846 37.6757 237.966 37.3756 238.472 36.4996C238.978 35.6236 238.677 34.5035 237.802 33.9978C236.926 33.492 235.805 33.7921 235.3 34.6681C234.794 35.5441 235.094 36.6642 235.97 37.1699Z" fill="#3C4452"/>
<path d="M88.8427 292.002C89.7187 292.508 90.8388 292.208 91.3445 291.332C91.8503 290.456 91.5501 289.336 90.6742 288.83C89.7982 288.324 88.6781 288.624 88.1723 289.5C87.6666 290.376 87.9667 291.496 88.8427 292.002Z" fill="#3C4452"/>
<path d="M200.927 22.6547C201.904 22.9165 202.909 22.3367 203.17 21.3597C203.432 20.3826 202.852 19.3784 201.875 19.1166C200.898 18.8548 199.894 19.4346 199.632 20.4116C199.37 21.3887 199.95 22.3929 200.927 22.6547Z" fill="#3C4452"/>
<path d="M124.768 306.883C125.745 307.145 126.75 306.565 127.011 305.588C127.273 304.611 126.693 303.607 125.716 303.345C124.739 303.083 123.735 303.663 123.473 304.64C123.212 305.617 123.791 306.621 124.768 306.883Z" fill="#3C4452"/>
<path d="M163.322 17.7039C164.334 17.7039 165.154 16.884 165.154 15.8725C165.154 14.861 164.334 14.041 163.322 14.041C162.311 14.041 161.491 14.861 161.491 15.8725C161.491 16.884 162.311 17.7039 163.322 17.7039Z" fill="white"/>
<g filter="url(#filter12_f_4535_6814)">
<path d="M163.322 19.5368C165.345 19.5368 166.985 17.8968 166.985 15.8739C166.985 13.8509 165.345 12.2109 163.322 12.2109C161.299 12.2109 159.659 13.8509 159.659 15.8739C159.659 17.8968 161.299 19.5368 163.322 19.5368Z" fill="white"/>
</g>
<g filter="url(#filter13_f_4535_6814)">
<path d="M163.322 19.5368C165.345 19.5368 166.985 17.8968 166.985 15.8739C166.985 13.8509 165.345 12.2109 163.322 12.2109C161.299 12.2109 159.659 13.8509 159.659 15.8739C159.659 17.8968 161.299 19.5368 163.322 19.5368Z" fill="white"/>
</g>
<path d="M163.322 311.958C164.334 311.958 165.154 311.138 165.154 310.126C165.154 309.115 164.334 308.295 163.322 308.295C162.311 308.295 161.491 309.115 161.491 310.126C161.491 311.138 162.311 311.958 163.322 311.958Z" fill="white"/>
<g filter="url(#filter14_f_4535_6814)">
<path d="M163.322 313.791C165.345 313.791 166.985 312.151 166.985 310.128C166.985 308.105 165.345 306.465 163.322 306.465C161.299 306.465 159.659 308.105 159.659 310.128C159.659 312.151 161.299 313.791 163.322 313.791Z" fill="white"/>
</g>
<g filter="url(#filter15_f_4535_6814)">
<path d="M163.322 313.791C165.345 313.791 166.985 312.151 166.985 310.128C166.985 308.105 165.345 306.465 163.322 306.465C161.299 306.465 159.659 308.105 159.659 310.128C159.659 312.151 161.299 313.791 163.322 313.791Z" fill="white"/>
</g>
</g>
<defs>
<filter id="filter0_f_4535_6814" x="256.817" y="256.496" width="21.0796" height="21.078" filterUnits="userSpaceOnUse" color-interpolation-filters="sRGB">
<feFlood flood-opacity="0" result="BackgroundImageFix"/>
<feBlend mode="normal" in="SourceGraphic" in2="BackgroundImageFix" result="shape"/>
<feGaussianBlur stdDeviation="3.43843" result="effect1_foregroundBlur_4535_6814"/>
</filter>
<filter id="filter1_f_4535_6814" x="251.729" y="251.408" width="31.2569" height="31.2553" filterUnits="userSpaceOnUse" color-interpolation-filters="sRGB">
<feFlood flood-opacity="0" result="BackgroundImageFix"/>
<feBlend mode="normal" in="SourceGraphic" in2="BackgroundImageFix" result="shape"/>
<feGaussianBlur stdDeviation="5.98277" result="effect1_foregroundBlur_4535_6814"/>
</filter>
<filter id="filter2_f_4535_6814" x="48.748" y="48.4259" width="21.0796" height="21.078" filterUnits="userSpaceOnUse" color-interpolation-filters="sRGB">
<feFlood flood-opacity="0" result="BackgroundImageFix"/>
<feBlend mode="normal" in="SourceGraphic" in2="BackgroundImageFix" result="shape"/>
<feGaussianBlur stdDeviation="3.43843" result="effect1_foregroundBlur_4535_6814"/>
</filter>
<filter id="filter3_f_4535_6814" x="43.6594" y="43.3372" width="31.2569" height="31.2553" filterUnits="userSpaceOnUse" color-interpolation-filters="sRGB">
<feFlood flood-opacity="0" result="BackgroundImageFix"/>
<feBlend mode="normal" in="SourceGraphic" in2="BackgroundImageFix" result="shape"/>
<feGaussianBlur stdDeviation="5.98277" result="effect1_foregroundBlur_4535_6814"/>
</filter>
<filter id="filter4_f_4535_6814" x="299.91" y="152.459" width="21.0796" height="21.0799" filterUnits="userSpaceOnUse" color-interpolation-filters="sRGB">
<feFlood flood-opacity="0" result="BackgroundImageFix"/>
<feBlend mode="normal" in="SourceGraphic" in2="BackgroundImageFix" result="shape"/>
<feGaussianBlur stdDeviation="3.43843" result="effect1_foregroundBlur_4535_6814"/>
</filter>
<filter id="filter5_f_4535_6814" x="294.821" y="147.37" width="31.2569" height="31.2573" filterUnits="userSpaceOnUse" color-interpolation-filters="sRGB">
<feFlood flood-opacity="0" result="BackgroundImageFix"/>
<feBlend mode="normal" in="SourceGraphic" in2="BackgroundImageFix" result="shape"/>
<feGaussianBlur stdDeviation="5.98277" result="effect1_foregroundBlur_4535_6814"/>
</filter>
<filter id="filter6_f_4535_6814" x="5.65498" y="152.459" width="21.0796" height="21.0799" filterUnits="userSpaceOnUse" color-interpolation-filters="sRGB">
<feFlood flood-opacity="0" result="BackgroundImageFix"/>
<feBlend mode="normal" in="SourceGraphic" in2="BackgroundImageFix" result="shape"/>
<feGaussianBlur stdDeviation="3.43843" result="effect1_foregroundBlur_4535_6814"/>
</filter>
<filter id="filter7_f_4535_6814" x="0.566301" y="147.37" width="31.2569" height="31.2573" filterUnits="userSpaceOnUse" color-interpolation-filters="sRGB">
<feFlood flood-opacity="0" result="BackgroundImageFix"/>
<feBlend mode="normal" in="SourceGraphic" in2="BackgroundImageFix" result="shape"/>
<feGaussianBlur stdDeviation="5.98277" result="effect1_foregroundBlur_4535_6814"/>
</filter>
<filter id="filter8_f_4535_6814" x="256.817" y="48.4259" width="21.0796" height="21.0799" filterUnits="userSpaceOnUse" color-interpolation-filters="sRGB">
<feFlood flood-opacity="0" result="BackgroundImageFix"/>
<feBlend mode="normal" in="SourceGraphic" in2="BackgroundImageFix" result="shape"/>
<feGaussianBlur stdDeviation="3.43843" result="effect1_foregroundBlur_4535_6814"/>
</filter>
<filter id="filter9_f_4535_6814" x="251.729" y="43.3372" width="31.257" height="31.2573" filterUnits="userSpaceOnUse" color-interpolation-filters="sRGB">
<feFlood flood-opacity="0" result="BackgroundImageFix"/>
<feBlend mode="normal" in="SourceGraphic" in2="BackgroundImageFix" result="shape"/>
<feGaussianBlur stdDeviation="5.98277" result="effect1_foregroundBlur_4535_6814"/>
</filter>
<filter id="filter10_f_4535_6814" x="48.7477" y="256.494" width="21.0796" height="21.0799" filterUnits="userSpaceOnUse" color-interpolation-filters="sRGB">
<feFlood flood-opacity="0" result="BackgroundImageFix"/>
<feBlend mode="normal" in="SourceGraphic" in2="BackgroundImageFix" result="shape"/>
<feGaussianBlur stdDeviation="3.43843" result="effect1_foregroundBlur_4535_6814"/>
</filter>
<filter id="filter11_f_4535_6814" x="43.659" y="251.406" width="31.2569" height="31.2573" filterUnits="userSpaceOnUse" color-interpolation-filters="sRGB">
<feFlood flood-opacity="0" result="BackgroundImageFix"/>
<feBlend mode="normal" in="SourceGraphic" in2="BackgroundImageFix" result="shape"/>
<feGaussianBlur stdDeviation="5.98277" result="effect1_foregroundBlur_4535_6814"/>
</filter>
<filter id="filter12_f_4535_6814" x="152.782" y="5.33407" width="21.0796" height="21.0799" filterUnits="userSpaceOnUse" color-interpolation-filters="sRGB">
<feFlood flood-opacity="0" result="BackgroundImageFix"/>
<feBlend mode="normal" in="SourceGraphic" in2="BackgroundImageFix" result="shape"/>
<feGaussianBlur stdDeviation="3.43843" result="effect1_foregroundBlur_4535_6814"/>
</filter>
<filter id="filter13_f_4535_6814" x="147.694" y="0.245394" width="31.2569" height="31.2573" filterUnits="userSpaceOnUse" color-interpolation-filters="sRGB">
<feFlood flood-opacity="0" result="BackgroundImageFix"/>
<feBlend mode="normal" in="SourceGraphic" in2="BackgroundImageFix" result="shape"/>
<feGaussianBlur stdDeviation="5.98277" result="effect1_foregroundBlur_4535_6814"/>
</filter>
<filter id="filter14_f_4535_6814" x="152.782" y="299.588" width="21.0796" height="21.0799" filterUnits="userSpaceOnUse" color-interpolation-filters="sRGB">
<feFlood flood-opacity="0" result="BackgroundImageFix"/>
<feBlend mode="normal" in="SourceGraphic" in2="BackgroundImageFix" result="shape"/>
<feGaussianBlur stdDeviation="3.43843" result="effect1_foregroundBlur_4535_6814"/>
</filter>
<filter id="filter15_f_4535_6814" x="147.694" y="294.499" width="31.2569" height="31.2573" filterUnits="userSpaceOnUse" color-interpolation-filters="sRGB">
<feFlood flood-opacity="0" result="BackgroundImageFix"/>
<feBlend mode="normal" in="SourceGraphic" in2="BackgroundImageFix" result="shape"/>
<feGaussianBlur stdDeviation="5.98277" result="effect1_foregroundBlur_4535_6814"/>
</filter>
<clipPath id="clip0_4535_6814">
<rect width="326" height="326" fill="white" transform="translate(0.322105)"/>
</clipPath>
</defs>
</svg>
