<svg width="534" height="534" viewBox="0 0 534 534" fill="none" xmlns="http://www.w3.org/2000/svg">
<circle cx="329.375" cy="499.789" r="3" transform="rotate(165 329.375 499.789)" fill="#3C4452"/>
<circle cx="204.624" cy="34.2127" r="3" transform="rotate(165 204.624 34.2127)" fill="#3C4452"/>
<circle cx="387.5" cy="475.712" r="3" transform="rotate(150 387.5 475.712)" fill="#3C4452"/>
<circle cx="146.5" cy="58.2886" r="3" transform="rotate(150 146.5 58.2886)" fill="#3C4452"/>
<circle cx="437.413" cy="437.414" r="3" transform="rotate(135 437.413 437.414)" fill="white"/>
<g filter="url(#filter0_f_3480_34693)">
<circle cx="437.413" cy="437.414" r="6" transform="rotate(135 437.413 437.414)" fill="white"/>
</g>
<g filter="url(#filter1_f_3480_34693)">
<circle cx="437.413" cy="437.414" r="6" transform="rotate(135 437.413 437.414)" fill="white"/>
</g>
<circle cx="96.5879" cy="96.5879" r="3" transform="rotate(135 96.5879 96.5879)" fill="white"/>
<g filter="url(#filter2_f_3480_34693)">
<circle cx="96.588" cy="96.5879" r="6" transform="rotate(135 96.588 96.5879)" fill="white"/>
</g>
<g filter="url(#filter3_f_3480_34693)">
<circle cx="96.588" cy="96.5879" r="6" transform="rotate(135 96.588 96.5879)" fill="white"/>
</g>
<circle cx="475.712" cy="387.5" r="3" transform="rotate(120 475.712 387.5)" fill="#3C4452"/>
<circle cx="58.2882" cy="146.5" r="3" transform="rotate(120 58.2882 146.5)" fill="#3C4452"/>
<circle cx="499.788" cy="329.375" r="3" transform="rotate(105 499.788 329.375)" fill="#3C4452"/>
<circle cx="34.212" cy="204.625" r="3" transform="rotate(105 34.212 204.625)" fill="#3C4452"/>
<circle cx="508" cy="267" r="3" transform="rotate(90 508 267)" fill="white"/>
<g filter="url(#filter4_f_3480_34693)">
<circle cx="508" cy="267" r="6" transform="rotate(90 508 267)" fill="white"/>
</g>
<g filter="url(#filter5_f_3480_34693)">
<circle cx="508" cy="267" r="6" transform="rotate(90 508 267)" fill="white"/>
</g>
<circle cx="26" cy="267" r="3" transform="rotate(90 26 267)" fill="white"/>
<g filter="url(#filter6_f_3480_34693)">
<circle cx="26" cy="267" r="6" transform="rotate(90 26 267)" fill="white"/>
</g>
<g filter="url(#filter7_f_3480_34693)">
<circle cx="26" cy="267" r="6" transform="rotate(90 26 267)" fill="white"/>
</g>
<circle cx="499.789" cy="204.623" r="3" transform="rotate(75 499.789 204.623)" fill="#3C4452"/>
<circle cx="34.2127" cy="329.373" r="3" transform="rotate(75 34.2127 329.373)" fill="#3C4452"/>
<circle cx="475.712" cy="146.5" r="3" transform="rotate(60 475.712 146.5)" fill="#3C4452"/>
<circle cx="58.2882" cy="387.5" r="3" transform="rotate(60 58.2882 387.5)" fill="#3C4452"/>
<circle cx="437.413" cy="96.5864" r="3" transform="rotate(45 437.413 96.5864)" fill="white"/>
<g filter="url(#filter8_f_3480_34693)">
<circle cx="437.413" cy="96.5868" r="6" transform="rotate(45 437.413 96.5868)" fill="white"/>
</g>
<g filter="url(#filter9_f_3480_34693)">
<circle cx="437.413" cy="96.5868" r="6" transform="rotate(45 437.413 96.5868)" fill="white"/>
</g>
<circle cx="96.5874" cy="437.413" r="3" transform="rotate(45 96.5874 437.413)" fill="white"/>
<g filter="url(#filter10_f_3480_34693)">
<circle cx="96.5874" cy="437.413" r="6" transform="rotate(45 96.5874 437.413)" fill="white"/>
</g>
<g filter="url(#filter11_f_3480_34693)">
<circle cx="96.5874" cy="437.413" r="6" transform="rotate(45 96.5874 437.413)" fill="white"/>
</g>
<circle cx="387.5" cy="58.2875" r="3" transform="rotate(30 387.5 58.2875)" fill="#3C4452"/>
<circle cx="146.5" cy="475.711" r="3" transform="rotate(30 146.5 475.711)" fill="#3C4452"/>
<circle cx="329.375" cy="34.2113" r="3" transform="rotate(15 329.375 34.2113)" fill="#3C4452"/>
<circle cx="204.624" cy="499.788" r="3" transform="rotate(15 204.624 499.788)" fill="#3C4452"/>
<circle cx="267" cy="26" r="3" fill="white"/>
<g filter="url(#filter12_f_3480_34693)">
<circle cx="267" cy="26" r="6" fill="white"/>
</g>
<g filter="url(#filter13_f_3480_34693)">
<circle cx="267" cy="26" r="6" fill="white"/>
</g>
<circle cx="267" cy="508" r="3" fill="white"/>
<g filter="url(#filter14_f_3480_34693)">
<circle cx="267" cy="508" r="6" fill="white"/>
</g>
<g filter="url(#filter15_f_3480_34693)">
<circle cx="267" cy="508" r="6" fill="white"/>
</g>
<defs>
<filter id="filter0_f_3480_34693" x="420.149" y="420.15" width="34.5291" height="34.5291" filterUnits="userSpaceOnUse" color-interpolation-filters="sRGB">
<feFlood flood-opacity="0" result="BackgroundImageFix"/>
<feBlend mode="normal" in="SourceGraphic" in2="BackgroundImageFix" result="shape"/>
<feGaussianBlur stdDeviation="5.63228" result="effect1_foregroundBlur_3480_34693"/>
</filter>
<filter id="filter1_f_3480_34693" x="411.813" y="411.814" width="51.2" height="51.2" filterUnits="userSpaceOnUse" color-interpolation-filters="sRGB">
<feFlood flood-opacity="0" result="BackgroundImageFix"/>
<feBlend mode="normal" in="SourceGraphic" in2="BackgroundImageFix" result="shape"/>
<feGaussianBlur stdDeviation="9.8" result="effect1_foregroundBlur_3480_34693"/>
</filter>
<filter id="filter2_f_3480_34693" x="79.3233" y="79.3233" width="34.5291" height="34.5291" filterUnits="userSpaceOnUse" color-interpolation-filters="sRGB">
<feFlood flood-opacity="0" result="BackgroundImageFix"/>
<feBlend mode="normal" in="SourceGraphic" in2="BackgroundImageFix" result="shape"/>
<feGaussianBlur stdDeviation="5.63228" result="effect1_foregroundBlur_3480_34693"/>
</filter>
<filter id="filter3_f_3480_34693" x="70.9879" y="70.9879" width="51.2" height="51.2" filterUnits="userSpaceOnUse" color-interpolation-filters="sRGB">
<feFlood flood-opacity="0" result="BackgroundImageFix"/>
<feBlend mode="normal" in="SourceGraphic" in2="BackgroundImageFix" result="shape"/>
<feGaussianBlur stdDeviation="9.8" result="effect1_foregroundBlur_3480_34693"/>
</filter>
<filter id="filter4_f_3480_34693" x="490.735" y="249.735" width="34.5291" height="34.5291" filterUnits="userSpaceOnUse" color-interpolation-filters="sRGB">
<feFlood flood-opacity="0" result="BackgroundImageFix"/>
<feBlend mode="normal" in="SourceGraphic" in2="BackgroundImageFix" result="shape"/>
<feGaussianBlur stdDeviation="5.63228" result="effect1_foregroundBlur_3480_34693"/>
</filter>
<filter id="filter5_f_3480_34693" x="482.4" y="241.4" width="51.2" height="51.2" filterUnits="userSpaceOnUse" color-interpolation-filters="sRGB">
<feFlood flood-opacity="0" result="BackgroundImageFix"/>
<feBlend mode="normal" in="SourceGraphic" in2="BackgroundImageFix" result="shape"/>
<feGaussianBlur stdDeviation="9.8" result="effect1_foregroundBlur_3480_34693"/>
</filter>
<filter id="filter6_f_3480_34693" x="8.73545" y="249.735" width="34.5291" height="34.5291" filterUnits="userSpaceOnUse" color-interpolation-filters="sRGB">
<feFlood flood-opacity="0" result="BackgroundImageFix"/>
<feBlend mode="normal" in="SourceGraphic" in2="BackgroundImageFix" result="shape"/>
<feGaussianBlur stdDeviation="5.63228" result="effect1_foregroundBlur_3480_34693"/>
</filter>
<filter id="filter7_f_3480_34693" x="0.4" y="241.4" width="51.2" height="51.2" filterUnits="userSpaceOnUse" color-interpolation-filters="sRGB">
<feFlood flood-opacity="0" result="BackgroundImageFix"/>
<feBlend mode="normal" in="SourceGraphic" in2="BackgroundImageFix" result="shape"/>
<feGaussianBlur stdDeviation="9.8" result="effect1_foregroundBlur_3480_34693"/>
</filter>
<filter id="filter8_f_3480_34693" x="420.149" y="79.3214" width="34.5291" height="34.5291" filterUnits="userSpaceOnUse" color-interpolation-filters="sRGB">
<feFlood flood-opacity="0" result="BackgroundImageFix"/>
<feBlend mode="normal" in="SourceGraphic" in2="BackgroundImageFix" result="shape"/>
<feGaussianBlur stdDeviation="5.63228" result="effect1_foregroundBlur_3480_34693"/>
</filter>
<filter id="filter9_f_3480_34693" x="411.813" y="70.9859" width="51.2" height="51.2" filterUnits="userSpaceOnUse" color-interpolation-filters="sRGB">
<feFlood flood-opacity="0" result="BackgroundImageFix"/>
<feBlend mode="normal" in="SourceGraphic" in2="BackgroundImageFix" result="shape"/>
<feGaussianBlur stdDeviation="9.8" result="effect1_foregroundBlur_3480_34693"/>
</filter>
<filter id="filter10_f_3480_34693" x="79.3228" y="420.148" width="34.5291" height="34.5291" filterUnits="userSpaceOnUse" color-interpolation-filters="sRGB">
<feFlood flood-opacity="0" result="BackgroundImageFix"/>
<feBlend mode="normal" in="SourceGraphic" in2="BackgroundImageFix" result="shape"/>
<feGaussianBlur stdDeviation="5.63228" result="effect1_foregroundBlur_3480_34693"/>
</filter>
<filter id="filter11_f_3480_34693" x="70.9874" y="411.812" width="51.2" height="51.2" filterUnits="userSpaceOnUse" color-interpolation-filters="sRGB">
<feFlood flood-opacity="0" result="BackgroundImageFix"/>
<feBlend mode="normal" in="SourceGraphic" in2="BackgroundImageFix" result="shape"/>
<feGaussianBlur stdDeviation="9.8" result="effect1_foregroundBlur_3480_34693"/>
</filter>
<filter id="filter12_f_3480_34693" x="249.735" y="8.73545" width="34.5291" height="34.5291" filterUnits="userSpaceOnUse" color-interpolation-filters="sRGB">
<feFlood flood-opacity="0" result="BackgroundImageFix"/>
<feBlend mode="normal" in="SourceGraphic" in2="BackgroundImageFix" result="shape"/>
<feGaussianBlur stdDeviation="5.63228" result="effect1_foregroundBlur_3480_34693"/>
</filter>
<filter id="filter13_f_3480_34693" x="241.4" y="0.4" width="51.2" height="51.2" filterUnits="userSpaceOnUse" color-interpolation-filters="sRGB">
<feFlood flood-opacity="0" result="BackgroundImageFix"/>
<feBlend mode="normal" in="SourceGraphic" in2="BackgroundImageFix" result="shape"/>
<feGaussianBlur stdDeviation="9.8" result="effect1_foregroundBlur_3480_34693"/>
</filter>
<filter id="filter14_f_3480_34693" x="249.735" y="490.735" width="34.5291" height="34.5291" filterUnits="userSpaceOnUse" color-interpolation-filters="sRGB">
<feFlood flood-opacity="0" result="BackgroundImageFix"/>
<feBlend mode="normal" in="SourceGraphic" in2="BackgroundImageFix" result="shape"/>
<feGaussianBlur stdDeviation="5.63228" result="effect1_foregroundBlur_3480_34693"/>
</filter>
<filter id="filter15_f_3480_34693" x="241.4" y="482.4" width="51.2" height="51.2" filterUnits="userSpaceOnUse" color-interpolation-filters="sRGB">
<feFlood flood-opacity="0" result="BackgroundImageFix"/>
<feBlend mode="normal" in="SourceGraphic" in2="BackgroundImageFix" result="shape"/>
<feGaussianBlur stdDeviation="9.8" result="effect1_foregroundBlur_3480_34693"/>
</filter>
</defs>
</svg>
